<svg xmlns="http://www.w3.org/2000/svg" xmlns:xlink="http://www.w3.org/1999/xlink" width="173" zoomAndPan="magnify" viewBox="0 0 129.75 30.000001" height="40" preserveAspectRatio="xMidYMid meet" version="1.0"><defs><g/><clipPath id="2728b43d4c"><path d="M 1.972656 0 L 127.535156 0 L 127.535156 29.03125 L 1.972656 29.03125 Z M 1.972656 0 " clip-rule="nonzero"/></clipPath></defs><g clip-path="url(#2728b43d4c)"><path fill="#ffffff" d="M 1.972656 0 L 127.535156 0 L 127.535156 29.03125 L 1.972656 29.03125 Z M 1.972656 0 " fill-opacity="1" fill-rule="nonzero"/><path fill="#ffffff" d="M 1.972656 0 L 127.535156 0 L 127.535156 29.03125 L 1.972656 29.03125 Z M 1.972656 0 " fill-opacity="1" fill-rule="nonzero"/></g><g fill="#a4861f" fill-opacity="1"><g transform="translate(5.895729, 19.709703)"><g><path d="M 5 -10.1875 C 6.644531 -10.1875 7.90625 -9.757812 8.78125 -8.90625 C 9.65625 -8.050781 10.09375 -6.78125 10.09375 -5.09375 C 10.09375 -3.414062 9.65625 -2.144531 8.78125 -1.28125 C 7.90625 -0.425781 6.644531 0 5 0 L 1.328125 0 L 1.328125 -10.1875 Z M 4.875 -1.6875 C 5.925781 -1.6875 6.710938 -1.957031 7.234375 -2.5 C 7.753906 -3.039062 8.015625 -3.90625 8.015625 -5.09375 C 8.015625 -6.289062 7.753906 -7.15625 7.234375 -7.6875 C 6.710938 -8.226562 5.925781 -8.5 4.875 -8.5 L 3.34375 -8.5 L 3.34375 -1.6875 Z M 4.875 -1.6875 "/></g></g></g><g fill="#a4861f" fill-opacity="1"><g transform="translate(16.786923, 19.709703)"><g/></g></g><g fill="#a4861f" fill-opacity="1"><g transform="translate(20.152536, 19.709703)"><g><path d="M 5.375 0.140625 C 4.394531 0.140625 3.664062 -0.222656 3.1875 -0.953125 L 3.046875 -0.921875 L 3.046875 0 L 1.109375 0 L 1.109375 -10.78125 L 3.046875 -10.78125 L 3.046875 -6.78125 L 3.1875 -6.75 C 3.445312 -7.125 3.757812 -7.398438 4.125 -7.578125 C 4.488281 -7.753906 4.921875 -7.84375 5.421875 -7.84375 C 6.046875 -7.84375 6.585938 -7.691406 7.046875 -7.390625 C 7.515625 -7.097656 7.878906 -6.65625 8.140625 -6.0625 C 8.398438 -5.46875 8.53125 -4.726562 8.53125 -3.84375 C 8.53125 -2.96875 8.394531 -2.226562 8.125 -1.625 C 7.851562 -1.03125 7.476562 -0.585938 7 -0.296875 C 6.53125 -0.00390625 5.988281 0.140625 5.375 0.140625 Z M 4.796875 -1.5 C 5.359375 -1.5 5.785156 -1.6875 6.078125 -2.0625 C 6.378906 -2.4375 6.53125 -3.03125 6.53125 -3.84375 C 6.53125 -4.65625 6.378906 -5.25 6.078125 -5.625 C 5.785156 -6.007812 5.359375 -6.203125 4.796875 -6.203125 C 4.242188 -6.203125 3.804688 -6.003906 3.484375 -5.609375 C 3.171875 -5.222656 3.015625 -4.632812 3.015625 -3.84375 C 3.015625 -3.050781 3.171875 -2.460938 3.484375 -2.078125 C 3.804688 -1.691406 4.242188 -1.5 4.796875 -1.5 Z M 4.796875 -1.5 "/></g></g></g><g fill="#a4861f" fill-opacity="1"><g transform="translate(29.359548, 19.709703)"><g><path d="M 3.171875 0.140625 C 2.410156 0.140625 1.816406 -0.0507812 1.390625 -0.4375 C 0.972656 -0.832031 0.765625 -1.398438 0.765625 -2.140625 C 0.765625 -2.597656 0.859375 -2.984375 1.046875 -3.296875 C 1.234375 -3.609375 1.523438 -3.863281 1.921875 -4.0625 C 2.316406 -4.257812 2.832031 -4.410156 3.46875 -4.515625 C 4.019531 -4.609375 4.441406 -4.710938 4.734375 -4.828125 C 5.023438 -4.941406 5.21875 -5.070312 5.3125 -5.21875 C 5.414062 -5.363281 5.46875 -5.546875 5.46875 -5.765625 C 5.46875 -6.117188 5.347656 -6.382812 5.109375 -6.5625 C 4.867188 -6.75 4.484375 -6.84375 3.953125 -6.84375 C 3.460938 -6.84375 3.035156 -6.742188 2.671875 -6.546875 C 2.316406 -6.359375 1.992188 -6.078125 1.703125 -5.703125 L 1.5625 -5.703125 L 1 -6.484375 C 1.332031 -6.898438 1.75 -7.226562 2.25 -7.46875 C 2.75 -7.71875 3.316406 -7.84375 3.953125 -7.84375 C 4.867188 -7.84375 5.539062 -7.640625 5.96875 -7.234375 C 6.394531 -6.835938 6.609375 -6.289062 6.609375 -5.59375 L 6.609375 -1.515625 C 6.609375 -1.085938 6.789062 -0.875 7.15625 -0.875 C 7.269531 -0.875 7.382812 -0.894531 7.5 -0.9375 L 7.59375 -0.90625 L 7.734375 -0.125 C 7.648438 -0.0625 7.539062 -0.015625 7.40625 0.015625 C 7.269531 0.046875 7.128906 0.0625 6.984375 0.0625 C 6.554688 0.0625 6.234375 -0.03125 6.015625 -0.21875 C 5.804688 -0.40625 5.671875 -0.679688 5.609375 -1.046875 L 5.453125 -1.0625 C 5.234375 -0.65625 4.9375 -0.351562 4.5625 -0.15625 C 4.195312 0.0390625 3.734375 0.140625 3.171875 0.140625 Z M 3.421875 -0.765625 C 3.847656 -0.765625 4.21875 -0.863281 4.53125 -1.0625 C 4.84375 -1.257812 5.082031 -1.535156 5.25 -1.890625 C 5.425781 -2.242188 5.515625 -2.65625 5.515625 -3.125 L 5.515625 -4.109375 L 5.375 -4.140625 C 5.207031 -4.015625 5 -3.910156 4.75 -3.828125 C 4.5 -3.742188 4.15625 -3.671875 3.71875 -3.609375 C 3.269531 -3.546875 2.914062 -3.453125 2.65625 -3.328125 C 2.394531 -3.203125 2.207031 -3.039062 2.09375 -2.84375 C 1.976562 -2.65625 1.921875 -2.421875 1.921875 -2.140625 C 1.921875 -1.691406 2.050781 -1.347656 2.3125 -1.109375 C 2.582031 -0.878906 2.953125 -0.765625 3.421875 -0.765625 Z M 3.421875 -0.765625 "/></g></g></g><g fill="#a4861f" fill-opacity="1"><g transform="translate(37.310191, 19.709703)"><g><path d="M 1.34375 0 L 1.34375 -7.6875 L 2.421875 -7.6875 L 2.421875 -6.484375 L 2.5625 -6.453125 C 2.820312 -6.898438 3.148438 -7.242188 3.546875 -7.484375 C 3.941406 -7.722656 4.425781 -7.84375 5 -7.84375 C 5.925781 -7.84375 6.597656 -7.601562 7.015625 -7.125 C 7.429688 -6.65625 7.640625 -5.929688 7.640625 -4.953125 L 7.640625 0 L 6.5 0 L 6.5 -4.921875 C 6.5 -5.390625 6.4375 -5.765625 6.3125 -6.046875 C 6.195312 -6.328125 6.015625 -6.53125 5.765625 -6.65625 C 5.515625 -6.78125 5.191406 -6.84375 4.796875 -6.84375 C 4.097656 -6.84375 3.535156 -6.613281 3.109375 -6.15625 C 2.679688 -5.695312 2.46875 -4.960938 2.46875 -3.953125 L 2.46875 0 Z M 1.34375 0 "/></g></g></g><g fill="#a4861f" fill-opacity="1"><g transform="translate(46.159718, 19.709703)"><g><path d="M 3.953125 3.265625 C 2.742188 3.265625 1.859375 3.0625 1.296875 2.65625 C 0.742188 2.25 0.46875 1.710938 0.46875 1.046875 C 0.46875 0.609375 0.597656 0.257812 0.859375 0 C 1.117188 -0.25 1.5 -0.425781 2 -0.53125 L 2 -0.6875 C 1.757812 -0.820312 1.578125 -0.976562 1.453125 -1.15625 C 1.335938 -1.332031 1.28125 -1.550781 1.28125 -1.8125 C 1.28125 -2.101562 1.375 -2.34375 1.5625 -2.53125 C 1.75 -2.71875 2.03125 -2.859375 2.40625 -2.953125 L 2.40625 -3.109375 C 1.570312 -3.546875 1.15625 -4.265625 1.15625 -5.265625 C 1.15625 -5.765625 1.265625 -6.207031 1.484375 -6.59375 C 1.710938 -6.988281 2.039062 -7.296875 2.46875 -7.515625 C 2.894531 -7.734375 3.390625 -7.84375 3.953125 -7.84375 C 4.597656 -7.84375 5.132812 -7.695312 5.5625 -7.40625 C 5.726562 -7.59375 5.847656 -7.789062 5.921875 -8 C 6.003906 -8.207031 6.0625 -8.441406 6.09375 -8.703125 L 6.234375 -8.78125 L 7.171875 -8.5625 C 7.117188 -8.175781 7 -7.847656 6.8125 -7.578125 C 6.625 -7.304688 6.359375 -7.082031 6.015625 -6.90625 L 6.015625 -6.75 C 6.265625 -6.5625 6.445312 -6.332031 6.5625 -6.0625 C 6.6875 -5.800781 6.75 -5.5 6.75 -5.15625 C 6.75 -4.664062 6.628906 -4.226562 6.390625 -3.84375 C 6.160156 -3.457031 5.832031 -3.15625 5.40625 -2.9375 C 4.988281 -2.71875 4.503906 -2.609375 3.953125 -2.609375 C 3.878906 -2.609375 3.757812 -2.613281 3.59375 -2.625 C 3.40625 -2.632812 3.269531 -2.640625 3.1875 -2.640625 C 2.945312 -2.640625 2.753906 -2.578125 2.609375 -2.453125 C 2.460938 -2.328125 2.390625 -2.164062 2.390625 -1.96875 C 2.390625 -1.726562 2.46875 -1.550781 2.625 -1.4375 C 2.78125 -1.320312 3.035156 -1.253906 3.390625 -1.234375 L 5.21875 -1.171875 C 6 -1.148438 6.578125 -0.96875 6.953125 -0.625 C 7.335938 -0.289062 7.53125 0.179688 7.53125 0.796875 C 7.53125 1.265625 7.40625 1.679688 7.15625 2.046875 C 6.914062 2.410156 6.523438 2.703125 5.984375 2.921875 C 5.453125 3.148438 4.773438 3.265625 3.953125 3.265625 Z M 3.953125 -3.578125 C 4.492188 -3.578125 4.910156 -3.71875 5.203125 -4 C 5.503906 -4.289062 5.65625 -4.691406 5.65625 -5.203125 C 5.65625 -5.734375 5.503906 -6.140625 5.203125 -6.421875 C 4.910156 -6.710938 4.492188 -6.859375 3.953125 -6.859375 C 3.398438 -6.859375 2.976562 -6.710938 2.6875 -6.421875 C 2.40625 -6.140625 2.265625 -5.734375 2.265625 -5.203125 C 2.265625 -4.679688 2.40625 -4.28125 2.6875 -4 C 2.976562 -3.71875 3.398438 -3.578125 3.953125 -3.578125 Z M 3.953125 2.28125 C 4.523438 2.28125 4.988281 2.21875 5.34375 2.09375 C 5.707031 1.96875 5.96875 1.800781 6.125 1.59375 C 6.28125 1.394531 6.359375 1.164062 6.359375 0.90625 C 6.359375 0.675781 6.316406 0.488281 6.234375 0.34375 C 6.148438 0.207031 6.007812 0.101562 5.8125 0.03125 C 5.625 -0.03125 5.367188 -0.0703125 5.046875 -0.09375 L 3.3125 -0.171875 L 3.078125 -0.171875 C 2.109375 -0.160156 1.625 0.210938 1.625 0.953125 C 1.625 1.835938 2.398438 2.28125 3.953125 2.28125 Z M 3.953125 2.28125 "/></g></g></g><g fill="#a4861f" fill-opacity="1"><g transform="translate(54.033706, 19.709703)"><g><path d="M 1.34375 0 L 1.34375 -10.78125 L 2.46875 -10.78125 L 2.46875 -4.484375 L 2.65625 -4.484375 L 5.515625 -7.6875 L 6.71875 -7.6875 L 6.71875 -7.53125 L 3.671875 -4.078125 L 7.015625 -0.171875 L 7.015625 0 L 5.734375 0 L 2.65625 -3.5625 L 2.46875 -3.5625 L 2.46875 0 Z M 1.34375 0 "/></g></g></g><g fill="#a4861f" fill-opacity="1"><g transform="translate(61.183008, 19.709703)"><g><path d="M 4.421875 0.140625 C 3.691406 0.140625 3.054688 -0.0078125 2.515625 -0.3125 C 1.984375 -0.625 1.570312 -1.078125 1.28125 -1.671875 C 0.988281 -2.265625 0.84375 -2.988281 0.84375 -3.84375 C 0.84375 -4.695312 0.988281 -5.421875 1.28125 -6.015625 C 1.570312 -6.617188 1.984375 -7.070312 2.515625 -7.375 C 3.054688 -7.6875 3.691406 -7.84375 4.421875 -7.84375 C 5.140625 -7.84375 5.765625 -7.6875 6.296875 -7.375 C 6.835938 -7.070312 7.253906 -6.617188 7.546875 -6.015625 C 7.835938 -5.421875 7.984375 -4.695312 7.984375 -3.84375 C 7.984375 -2.988281 7.835938 -2.265625 7.546875 -1.671875 C 7.253906 -1.078125 6.835938 -0.625 6.296875 -0.3125 C 5.765625 -0.0078125 5.140625 0.140625 4.421875 0.140625 Z M 4.421875 -0.875 C 5.179688 -0.875 5.765625 -1.113281 6.171875 -1.59375 C 6.578125 -2.082031 6.78125 -2.832031 6.78125 -3.84375 C 6.78125 -4.863281 6.578125 -5.613281 6.171875 -6.09375 C 5.765625 -6.570312 5.179688 -6.8125 4.421875 -6.8125 C 3.648438 -6.8125 3.054688 -6.566406 2.640625 -6.078125 C 2.234375 -5.597656 2.03125 -4.851562 2.03125 -3.84375 C 2.03125 -2.832031 2.234375 -2.082031 2.640625 -1.59375 C 3.054688 -1.113281 3.648438 -0.875 4.421875 -0.875 Z M 4.421875 -0.875 "/></g></g></g><g fill="#a4861f" fill-opacity="1"><g transform="translate(70.004661, 19.709703)"><g><path d="M 1.34375 0 L 1.34375 -10.78125 L 2.46875 -10.78125 L 2.46875 -4.484375 L 2.65625 -4.484375 L 5.515625 -7.6875 L 6.71875 -7.6875 L 6.71875 -7.53125 L 3.671875 -4.078125 L 7.015625 -0.171875 L 7.015625 0 L 5.734375 0 L 2.65625 -3.5625 L 2.46875 -3.5625 L 2.46875 0 Z M 1.34375 0 "/></g></g></g><g fill="#a4861f" fill-opacity="1"><g transform="translate(77.153964, 19.709703)"><g/></g></g><g fill="#a4861f" fill-opacity="1"><g transform="translate(80.651965, 19.709703)"><g><path d="M 5.640625 0.140625 C 4.742188 0.140625 3.945312 -0.0625 3.25 -0.46875 C 2.550781 -0.875 2.003906 -1.46875 1.609375 -2.25 C 1.210938 -3.039062 1.015625 -3.988281 1.015625 -5.09375 C 1.015625 -6.195312 1.210938 -7.140625 1.609375 -7.921875 C 2.003906 -8.710938 2.550781 -9.3125 3.25 -9.71875 C 3.945312 -10.132812 4.742188 -10.34375 5.640625 -10.34375 C 6.585938 -10.34375 7.375 -10.160156 8 -9.796875 C 8.632812 -9.441406 9.09375 -8.898438 9.375 -8.171875 L 8.609375 -7.65625 L 8.4375 -7.65625 C 8.15625 -8.238281 7.789062 -8.648438 7.34375 -8.890625 C 6.90625 -9.140625 6.335938 -9.265625 5.640625 -9.265625 C 4.992188 -9.265625 4.421875 -9.117188 3.921875 -8.828125 C 3.429688 -8.546875 3.035156 -8.09375 2.734375 -7.46875 C 2.441406 -6.851562 2.296875 -6.0625 2.296875 -5.09375 C 2.296875 -4.125 2.441406 -3.332031 2.734375 -2.71875 C 3.035156 -2.101562 3.429688 -1.648438 3.921875 -1.359375 C 4.421875 -1.078125 4.992188 -0.9375 5.640625 -0.9375 C 6.378906 -0.9375 6.984375 -1.101562 7.453125 -1.4375 C 7.921875 -1.769531 8.269531 -2.304688 8.5 -3.046875 L 8.671875 -3.046875 L 9.46875 -2.65625 C 9.226562 -1.75 8.78125 -1.054688 8.125 -0.578125 C 7.46875 -0.0976562 6.640625 0.140625 5.640625 0.140625 Z M 5.640625 0.140625 "/></g></g></g><g fill="#a4861f" fill-opacity="1"><g transform="translate(90.644265, 19.709703)"><g><path d="M 3.0625 0.140625 C 2.519531 0.140625 2.09375 -0.0078125 1.78125 -0.3125 C 1.46875 -0.625 1.3125 -1.085938 1.3125 -1.703125 L 1.3125 -10.78125 L 2.453125 -10.78125 L 2.453125 -1.78125 C 2.453125 -1.457031 2.507812 -1.222656 2.625 -1.078125 C 2.75 -0.941406 2.941406 -0.875 3.203125 -0.875 C 3.359375 -0.875 3.519531 -0.898438 3.6875 -0.953125 L 3.78125 -0.921875 L 3.921875 -0.03125 C 3.835938 0.03125 3.71875 0.0703125 3.5625 0.09375 C 3.40625 0.125 3.238281 0.140625 3.0625 0.140625 Z M 3.0625 0.140625 "/></g></g></g><g fill="#a4861f" fill-opacity="1"><g transform="translate(94.825144, 19.709703)"><g><path d="M 1.90625 -9.171875 C 1.664062 -9.171875 1.46875 -9.242188 1.3125 -9.390625 C 1.164062 -9.546875 1.09375 -9.742188 1.09375 -9.984375 C 1.09375 -10.210938 1.164062 -10.398438 1.3125 -10.546875 C 1.46875 -10.703125 1.664062 -10.78125 1.90625 -10.78125 C 2.144531 -10.78125 2.335938 -10.703125 2.484375 -10.546875 C 2.640625 -10.398438 2.71875 -10.210938 2.71875 -9.984375 C 2.71875 -9.742188 2.640625 -9.546875 2.484375 -9.390625 C 2.335938 -9.242188 2.144531 -9.171875 1.90625 -9.171875 Z M 1.34375 0 L 1.34375 -7.6875 L 2.46875 -7.6875 L 2.46875 0 Z M 1.34375 0 "/></g></g></g><g fill="#a4861f" fill-opacity="1"><g transform="translate(98.636717, 19.709703)"><g><path d="M 1.34375 0 L 1.34375 -7.6875 L 2.421875 -7.6875 L 2.421875 -6.484375 L 2.5625 -6.453125 C 2.820312 -6.898438 3.148438 -7.242188 3.546875 -7.484375 C 3.941406 -7.722656 4.425781 -7.84375 5 -7.84375 C 5.925781 -7.84375 6.597656 -7.601562 7.015625 -7.125 C 7.429688 -6.65625 7.640625 -5.929688 7.640625 -4.953125 L 7.640625 0 L 6.5 0 L 6.5 -4.921875 C 6.5 -5.390625 6.4375 -5.765625 6.3125 -6.046875 C 6.195312 -6.328125 6.015625 -6.53125 5.765625 -6.65625 C 5.515625 -6.78125 5.191406 -6.84375 4.796875 -6.84375 C 4.097656 -6.84375 3.535156 -6.613281 3.109375 -6.15625 C 2.679688 -5.695312 2.46875 -4.960938 2.46875 -3.953125 L 2.46875 0 Z M 1.34375 0 "/></g></g></g><g fill="#a4861f" fill-opacity="1"><g transform="translate(107.486243, 19.709703)"><g><path d="M 1.90625 -9.171875 C 1.664062 -9.171875 1.46875 -9.242188 1.3125 -9.390625 C 1.164062 -9.546875 1.09375 -9.742188 1.09375 -9.984375 C 1.09375 -10.210938 1.164062 -10.398438 1.3125 -10.546875 C 1.46875 -10.703125 1.664062 -10.78125 1.90625 -10.78125 C 2.144531 -10.78125 2.335938 -10.703125 2.484375 -10.546875 C 2.640625 -10.398438 2.71875 -10.210938 2.71875 -9.984375 C 2.71875 -9.742188 2.640625 -9.546875 2.484375 -9.390625 C 2.335938 -9.242188 2.144531 -9.171875 1.90625 -9.171875 Z M 1.34375 0 L 1.34375 -7.6875 L 2.46875 -7.6875 L 2.46875 0 Z M 1.34375 0 "/></g></g></g><g fill="#a4861f" fill-opacity="1"><g transform="translate(111.297816, 19.709703)"><g><path d="M 4.421875 0.140625 C 3.734375 0.140625 3.117188 -0.0078125 2.578125 -0.3125 C 2.046875 -0.625 1.625 -1.082031 1.3125 -1.6875 C 1 -2.289062 0.84375 -3.007812 0.84375 -3.84375 C 0.84375 -4.6875 1 -5.40625 1.3125 -6 C 1.625 -6.601562 2.046875 -7.0625 2.578125 -7.375 C 3.117188 -7.6875 3.734375 -7.84375 4.421875 -7.84375 C 5.234375 -7.84375 5.878906 -7.6875 6.359375 -7.375 C 6.835938 -7.070312 7.1875 -6.664062 7.40625 -6.15625 L 6.625 -5.59375 L 6.484375 -5.59375 C 6.273438 -6.019531 6.003906 -6.328125 5.671875 -6.515625 C 5.347656 -6.710938 4.929688 -6.8125 4.421875 -6.8125 C 3.941406 -6.8125 3.519531 -6.703125 3.15625 -6.484375 C 2.800781 -6.265625 2.523438 -5.929688 2.328125 -5.484375 C 2.128906 -5.035156 2.03125 -4.488281 2.03125 -3.84375 C 2.03125 -3.195312 2.128906 -2.648438 2.328125 -2.203125 C 2.535156 -1.765625 2.816406 -1.429688 3.171875 -1.203125 C 3.523438 -0.984375 3.941406 -0.875 4.421875 -0.875 C 4.953125 -0.875 5.390625 -0.992188 5.734375 -1.234375 C 6.085938 -1.472656 6.363281 -1.851562 6.5625 -2.375 L 6.71875 -2.375 L 7.46875 -1.9375 C 7.257812 -1.289062 6.898438 -0.78125 6.390625 -0.40625 C 5.878906 -0.0390625 5.222656 0.140625 4.421875 0.140625 Z M 4.421875 0.140625 "/></g></g></g></svg>