<?xml version="1.0" encoding="iso-8859-1"?>
<!-- Uploaded to: SVG Repo, www.svgrepo.com, Generator: SVG Repo Mixer Tools -->
<svg fill="#000000" height="800px" width="800px" version="1.1" id="Layer_1" xmlns="http://www.w3.org/2000/svg" xmlns:xlink="http://www.w3.org/1999/xlink" 
	 viewBox="0 0 512 512" xml:space="preserve">
<g>
	<g>
		<path d="M421.439,83.267C419.173,79.868,364.677,0,255.999,0S92.826,79.868,90.561,83.269l-6.486,9.729l76.874,131.783H351.05
			l76.875-131.784L421.439,83.267z"/>
	</g>
</g>
<g>
	<g>
		<path d="M368.39,374.634c0-42.412-17.284-87.699-28.372-112.39H171.981c-11.089,24.691-28.372,69.978-28.372,112.39
			c0,51.488,37.463,87.415,37.463,87.415S156.097,487.024,156.097,512h99.902h99.902c0-24.976-24.976-49.951-24.976-49.951
			S368.39,426.123,368.39,374.634z"/>
	</g>
</g>
</svg>